HIERARCHY
ROOT Hips
{
	OFFSET 0.000000 0.000000 0.000000
	CHANNELS 6 Xposition Yposition Zposition Zrotation Yrotation Xrotation 
	JOINT LHipJoint
	{
		OFFSET 0.000000 0.000000 0.000000
		CHANNELS 3 Zrotation Yrotation Xrotation
		JOINT LeftUpLeg
		{
			OFFSET 8.178360 -10.767780 5.035740
			CHANNELS 3 Zrotation Yrotation Xrotation
			JOINT LeftLeg
			{
				OFFSET 14.688660 -40.356780 0.000000
				CHANNELS 3 Zrotation Yrotation Xrotation
				JOINT LeftFoot
				{
					OFFSET 15.373200 -42.237540 0.000000
					CHANNELS 3 Zrotation Yrotation Xrotation
					JOINT LeftToeBase
					{
						OFFSET 0.945840 -2.598660 13.935300
						CHANNELS 3 Zrotation Yrotation Xrotation
						End Site
						{
							OFFSET 0.000000 0.000000 0.000000
						}
					}
				}
			}
		}
	}
	JOINT RHipJoint
	{
		OFFSET 0.000000 0.000000 0.000000
		CHANNELS 3 Zrotation Yrotation Xrotation
		JOINT RightUpLeg
		{
			OFFSET -7.833120 -10.767780 5.035740
			CHANNELS 3 Zrotation Yrotation Xrotation
			JOINT RightLeg
			{
				OFFSET -15.255180 -41.913300 0.000000
				CHANNELS 3 Zrotation Yrotation Xrotation
				JOINT RightFoot
				{
					OFFSET -15.409560 -42.337380 0.000000
					CHANNELS 3 Zrotation Yrotation Xrotation
					JOINT RightToeBase
					{
						OFFSET -0.988380 -2.715540 14.178900
						CHANNELS 3 Zrotation Yrotation Xrotation
						End Site
						{
							OFFSET 0.000000 0.000000 0.000000
						}
					}
				}
			}
		}
	}
	JOINT LowerBack
	{
		OFFSET 0.000000 0.000000 0.000000
		CHANNELS 3 Zrotation Yrotation Xrotation
		JOINT Spine
		{
			OFFSET 0.169620 12.213540 -1.160280
			CHANNELS 3 Zrotation Yrotation Xrotation
			JOINT Spine1
			{
				OFFSET 0.340320 12.293100 -0.256500
				CHANNELS 3 Zrotation Yrotation Xrotation
				JOINT Neck
				{
					OFFSET 0.000000 0.000000 0.000000
					CHANNELS 3 Zrotation Yrotation Xrotation
					JOINT Neck1
					{
						OFFSET -0.325020 10.477440 1.032120
						CHANNELS 3 Zrotation Yrotation Xrotation
						JOINT Head
						{
							OFFSET 0.624420 10.568160 -0.743820
							CHANNELS 3 Zrotation Yrotation Xrotation
							End Site
							{
								OFFSET 0.000000 0.000000 0.000000
							}
						}
					}
				}
				JOINT LeftShoulder
				{
					OFFSET 0.000000 0.000000 0.000000
					CHANNELS 3 Zrotation Yrotation Xrotation
					JOINT LeftArm
					{
						OFFSET 20.174460 7.205340 -1.867260
						CHANNELS 3 Zrotation Yrotation Xrotation
						JOINT LeftForeArm
						{
							OFFSET 29.898000 -0.000000 -0.000000
							CHANNELS 3 Zrotation Yrotation Xrotation
							JOINT LeftHand
							{
								OFFSET 20.901360 -0.000000 -0.000000
								CHANNELS 3 Zrotation Yrotation Xrotation
								JOINT LeftFingerBase
								{
									OFFSET 0.000000 0.000000 0.000000
									CHANNELS 3 Zrotation Yrotation Xrotation
									JOINT LeftHandIndex1
									{
										OFFSET 4.291560 -0.000000 -0.000000
										CHANNELS 3 Zrotation Yrotation Xrotation
										End Site
										{
											OFFSET 0.000000 0.000000 0.000000
										}
									}
								}
								JOINT LThumb
								{
									OFFSET 0.000000 0.000000 0.000000
									CHANNELS 3 Zrotation Yrotation Xrotation
									End Site
									{
										OFFSET 0.000000 0.000000 0.000000
									}
								}
							}
						}
					}
				}
				JOINT RightShoulder
				{
					OFFSET 0.000000 0.000000 0.000000
					CHANNELS 3 Zrotation Yrotation Xrotation
					JOINT RightArm
					{
						OFFSET -18.819600 8.244300 -2.427900
						CHANNELS 3 Zrotation Yrotation Xrotation
						JOINT RightForeArm
						{
							OFFSET -31.451400 -0.000000 -0.000000
							CHANNELS 3 Zrotation Yrotation Xrotation
							JOINT RightHand
							{
								OFFSET -20.665020 -0.000000 -0.000000
								CHANNELS 3 Zrotation Yrotation Xrotation
								JOINT RightFingerBase
								{
									OFFSET 0.000000 0.000000 0.000000
									CHANNELS 3 Zrotation Yrotation Xrotation
									JOINT RightHandIndex1
									{
										OFFSET -3.735180 -0.000000 -0.000000
										CHANNELS 3 Zrotation Yrotation Xrotation
										End Site
										{
											OFFSET 0.000000 0.000000 0.000000
										}
									}
								}
								JOINT RThumb
								{
									OFFSET 0.000000 0.000000 0.000000
									CHANNELS 3 Zrotation Yrotation Xrotation
									End Site
									{
										OFFSET 0.000000 0.000000 0.000000
									}
								}
							}
						}
					}
				}
			}
		}
	}
}
MOTION
Frames:	11
Frame Time:	0.0333333
-53.773734 105.841902 -219.990888 6.864514 -1.535442 4.113935 -1.044931 2.273323 3.048648 -27.971383 1.418581 5.713561 -0.596063 4.279117 15.774632 1.254914 -3.415912 3.718197 0.264900 -3.311300 -9.146600 -0.815830 -1.471198 0.003867 13.713919 10.483276 -29.831732 0.583670 -5.423193 13.970026 0.876915 -7.882936 11.324888 -0.008000 0.576300 -1.583700 -8.308551 -2.774975 0.401347 1.220366 -4.066689 -2.026062 8.317958 -1.898014 -1.000913 -11.183327 0.477846 -3.879776 4.465170 1.688896 10.382463 4.145400 0.271400 5.607400 -7.683901 3.279155 -2.119296 -81.831355 -3.622108 13.564186 12.041254 -22.877580 -3.344313 -1.474118 -3.269552 8.185140 16.570204 20.174448 7.251600 -7.125000 0.000000 0.000000 -12.268000 54.226600 -2.814100 6.231491 -2.703786 -2.132806 78.586858 -7.453916 10.785336 -10.382796 16.934506 -2.179212 0.987335 -1.471483 13.364764 -13.326507 16.248497 -4.459900 7.125000 0.000000 0.000000 8.783300 -12.199400 6.811400 
-54.147876 106.118946 -215.765916 6.548197 -2.622819 3.629678 -0.778850 2.358975 3.039755 -28.104419 1.118582 7.610576 -0.394952 4.702362 17.108764 1.163561 -3.207826 5.044904 1.281900 -7.174800 -20.234300 -0.849750 -1.494827 -0.028816 14.134949 12.128647 -29.617820 -0.025071 -7.112552 18.559670 1.103142 -9.537264 13.415009 -0.000100 0.069800 -0.191700 -6.819020 -1.250838 0.685496 0.519024 -1.899175 -1.608528 5.466137 -0.943149 -0.225481 -9.086275 -0.659479 -5.957992 4.487638 0.018383 10.829568 3.786800 -0.424000 6.469800 -7.868088 3.020517 -2.068839 -79.937441 -5.861652 16.203408 11.585002 -22.017904 -3.058659 -1.600644 -3.181714 8.612186 17.183150 19.544787 7.359000 -7.125000 0.000000 0.000000 -11.235000 53.665300 -2.417500 6.248925 -2.644621 -2.052307 81.510819 -6.267649 5.875636 -10.281718 16.524051 -2.115898 0.855915 -1.136202 14.933545 -12.292264 12.958934 -3.254800 7.125000 0.000000 0.000000 9.578000 -15.938500 6.674700 
-54.347622 106.730556 -211.158768 5.936605 -0.179552 2.918962 -0.968283 2.429500 3.332962 -26.784613 -1.850441 8.268340 0.237535 6.344369 21.888856 1.179370 -3.207333 10.796432 1.237000 -7.053000 -19.872400 -1.168141 -1.733622 0.300986 15.600176 9.605156 -28.496120 -0.360188 -7.748938 20.748851 0.907647 -9.133908 14.937516 -0.028700 -1.093100 3.004900 -9.301512 -2.269219 6.413970 2.298022 -4.218465 -3.307700 13.018901 -1.158027 -7.480132 -12.563025 0.212154 -5.380222 2.702688 1.944419 13.351018 3.380500 -0.088800 7.844900 -7.497078 3.012738 -2.489779 -86.744164 1.068938 11.588691 11.926674 -22.349980 -3.194427 -1.712693 -3.120550 9.993299 17.535546 19.575954 7.530100 -7.125000 0.000000 0.000000 -10.846100 53.752500 -2.355500 6.730213 -2.437932 -2.605624 74.089053 -10.653905 10.049258 -10.161254 16.383172 -2.085872 0.782279 -0.815469 13.279310 -10.765637 10.792590 -2.343200 7.125000 0.000000 0.000000 10.801200 -18.475600 6.946000 
-55.016118 107.237646 -206.787858 4.965648 -2.519365 2.822548 -0.887111 2.286561 3.179742 -25.306133 -0.118859 4.828968 1.309653 8.423666 28.231309 1.657534 -4.018825 19.496982 1.377000 -7.425700 -20.982800 -1.239909 -1.796269 0.399288 17.482602 11.792160 -26.295824 -0.655420 -8.212189 22.556467 0.857404 -8.481252 14.324594 -0.220900 -3.025700 8.350300 -9.154087 -1.479901 5.878851 2.422202 -3.132623 -3.284858 13.377858 -0.547968 -7.555061 -12.421913 0.281112 -4.771475 2.477672 1.947438 13.413894 3.219000 -0.092100 7.720600 -7.485831 3.114797 -2.473226 -87.514015 2.249957 9.920290 11.402160 -21.564655 -2.918181 -1.722298 -3.132850 10.809344 17.163218 19.738532 7.412000 -7.125000 0.000000 0.000000 -11.345400 53.870800 -2.499000 6.783691 -2.490224 -2.622244 74.181648 -10.662655 9.921972 -10.314414 16.637408 -2.106987 0.919306 -1.531120 13.077712 -12.759490 16.737017 -4.397200 7.125000 0.000000 0.000000 9.205800 -11.682100 7.247600 
-55.688946 107.807202 -202.580820 3.229767 -4.653007 2.633859 -0.537403 2.142559 2.734003 -22.840789 1.696291 0.456663 2.811548 10.724122 35.518468 2.462275 -4.620092 28.688906 0.940200 -6.176000 -17.295900 -1.077113 -1.820144 0.380910 20.260024 13.122133 -22.807135 -0.646334 -8.017143 22.499173 0.811151 -7.660536 13.194196 -0.359100 -3.849600 10.653900 -5.233839 -0.742685 1.490949 1.478794 -1.432340 -1.994145 7.765312 -0.455732 -1.942461 -10.439255 -0.269275 -4.622312 3.671670 0.715660 12.409297 3.616000 -0.345400 6.880800 -7.805982 3.345378 -2.125828 -83.567146 -0.815315 12.183509 10.398558 -20.160424 -2.459300 -1.693843 -3.038355 9.613267 17.142679 18.126228 6.903200 -7.125000 0.000000 0.000000 -10.613300 52.126200 -1.879400 6.522703 -2.726778 -2.215051 78.926144 -6.866356 7.623338 -10.214407 16.464750 -2.078577 0.925349 -1.351243 13.732706 -12.825487 14.919320 -3.935300 7.125000 0.000000 0.000000 9.149700 -13.700000 6.811600 
-55.792224 108.815208 -198.240828 1.916759 2.516218 1.272182 -0.371253 2.132597 2.565531 -19.803279 -4.797827 -1.430409 4.730946 13.084954 43.325797 3.653787 -5.067787 38.532005 0.136600 -2.382000 -6.562600 -1.058829 -2.084507 0.742258 22.087462 7.854591 -18.769533 -0.539805 -7.314056 20.974126 1.874551 -10.537584 9.622507 -0.522700 -4.633300 12.865500 -3.945176 -2.631139 5.313135 2.117059 -4.062136 -2.638766 8.914280 -1.492348 -5.164918 -10.915520 -0.446342 -4.881400 3.168612 0.661509 13.218468 3.390900 -0.516900 7.578900 -7.767713 3.269031 -2.272151 -85.437145 1.578251 13.608209 10.065188 -19.422435 -2.223765 -1.848772 -3.115804 11.723020 17.473301 19.539880 7.523100 -7.125000 0.000000 0.000000 -10.885000 53.766400 -2.367800 6.584492 -2.535859 -2.419359 76.937952 -8.275991 10.071483 -10.708218 17.195969 -2.299055 0.909652 -0.956158 10.901721 -11.821777 12.518542 -3.003800 7.125000 0.000000 0.000000 9.937900 -16.527700 6.804300 
-56.134818 109.183164 -194.384430 0.891211 1.699855 0.891214 -0.025050 1.963887 2.125167 -18.253563 -4.747165 -6.283693 6.896564 14.987618 50.687497 3.253094 -3.830570 36.546356 0.145600 -2.459200 -6.776500 -1.102630 -2.194696 0.902965 23.989921 7.336302 -15.210451 -0.347432 -6.618368 19.502590 1.893114 -10.101711 8.419051 -0.506600 -4.562600 12.665000 -2.882469 -2.255513 4.880447 2.101882 -3.471178 -2.423682 8.200651 -1.239703 -4.452102 -10.723208 -0.503645 -4.567136 3.433168 0.500264 13.184547 3.500000 -0.553500 7.441700 -7.783540 3.351007 -2.256892 -85.338383 2.191683 15.246298 9.925242 -19.241277 -2.128080 -2.029957 -3.135010 13.106968 18.482283 20.166028 8.226900 -7.125000 0.000000 0.000000 -10.062900 54.697700 -2.415500 6.562531 -2.510922 -2.323879 77.066950 -6.870397 12.527459 -10.748550 17.163044 -2.251249 1.261699 -1.221577 7.327248 -14.377739 15.228683 -4.511900 7.125000 0.000000 0.000000 7.991100 -13.286100 6.000600 
-56.416194 109.573998 -190.633782 0.104790 0.535136 0.423528 0.284823 1.831279 1.786164 -17.051347 -4.379372 -10.812148 8.491429 16.205909 55.979541 2.312947 -3.126084 29.788367 0.051400 -1.463800 -4.025800 -1.139392 -2.297814 1.060953 25.568679 6.304174 -11.933547 -0.138492 -5.888821 17.908859 1.712011 -9.038117 7.546963 -0.416200 -4.140900 11.473500 -1.916265 -1.282568 5.379388 1.941269 -2.100099 -2.355877 7.137195 -0.534455 -4.838802 -10.137392 -1.179953 -4.195113 3.375786 -0.537754 13.216650 3.330600 -1.016500 7.507400 -7.751874 3.321032 -2.274445 -85.112300 3.122143 16.984140 9.909576 -19.216995 -2.118166 -2.053772 -3.109014 13.376703 18.630927 19.953950 8.225400 -7.125000 0.000000 0.000000 -9.803000 54.500600 -2.305000 6.394151 -2.396869 -2.344247 77.710603 -6.232346 13.971846 -12.128162 19.105674 -2.861471 1.240290 -0.309546 9.939004 -14.723462 7.497943 -2.157100 7.125000 0.000000 0.000000 7.876300 -22.154600 4.364900 
-56.482368 109.734162 -187.016094 -0.456029 -0.163463 -0.060589 0.455821 1.697940 1.501995 -16.178278 -4.788112 -14.627684 9.334686 16.858148 58.516703 1.388747 -1.423244 22.620168 0.149400 -2.491200 -6.865200 -1.182769 -2.393324 1.180437 26.560906 5.068726 -8.731644 0.017754 -5.264809 16.566324 1.506499 -7.975406 6.920018 -0.221900 -3.032100 8.368200 -1.067898 -1.013540 5.272972 1.934855 -1.685618 -2.144919 6.541196 -0.356968 -4.181308 -10.188859 -0.844572 -4.303946 3.668173 -0.073635 13.014534 3.529900 -0.765100 7.349500 -7.780376 3.366405 -2.213635 -85.713634 3.387057 15.620015 9.743185 -18.912947 -2.070265 -1.984654 -2.924390 12.860665 18.205992 17.935856 7.322400 -7.125000 0.000000 0.000000 -9.372400 52.154400 -1.662800 6.335156 -2.336143 -2.288712 77.267420 -4.658746 16.249262 -12.604383 19.790385 -3.094615 1.218240 -0.129611 9.203776 -14.532506 6.310444 -1.747600 7.125000 0.000000 0.000000 8.101500 -23.542600 4.232100 
-56.614704 109.599972 -183.504150 -0.727620 -0.849514 -0.061500 0.598665 1.519031 1.245376 -15.556172 -5.651446 -18.448121 9.377761 17.078597 58.618870 0.842709 -0.380150 17.374030 0.174100 -2.687500 -7.410000 -1.191249 -2.416755 1.274856 27.093632 4.599842 -6.667057 -0.043270 -5.275472 16.904639 1.442116 -7.347714 4.898780 -0.092900 -1.966100 5.412000 -0.291980 0.060252 5.635402 1.564318 -0.205285 -2.055696 4.936357 0.366588 -4.156301 -9.159925 -1.717338 -5.314535 3.704290 -1.353012 13.365108 3.301700 -1.307200 7.911300 -7.789850 3.240821 -2.276883 -84.919469 3.733546 18.342698 9.955615 -19.269268 -2.171291 -1.878574 -3.038265 10.767777 18.183024 18.140711 7.391800 -7.125000 0.000000 0.000000 -9.489700 52.402900 -1.741900 6.230688 -2.201730 -2.252322 78.196550 -3.037193 15.836075 -13.103065 20.395372 -3.329157 1.130409 -0.201908 8.435320 -14.002910 7.214118 -1.947500 7.125000 0.000000 0.000000 8.504900 -22.532600 4.646400 
-56.595534 109.236966 -180.073836 -1.119164 -2.468463 -0.298425 0.485408 1.381335 1.139825 -14.732824 -5.818829 -21.531369 8.667449 16.846749 56.264533 0.247807 1.416092 12.219166 0.148800 -2.486000 -6.850800 -1.354881 -2.442819 1.390629 27.850685 4.298638 -4.879843 -0.183935 -5.499433 17.910004 1.135018 -5.901785 2.622056 -0.082100 -1.848100 5.085900 -0.822452 -0.509493 6.125049 2.147934 -1.030550 -2.428766 7.138395 0.165297 -5.794885 -10.800039 -0.130769 -2.471911 3.460836 0.846725 12.735208 3.567400 -0.384400 6.792000 -7.591960 3.485181 -2.379183 -87.757583 7.391570 14.038655 10.199851 -19.771346 -2.313073 -1.841254 -3.004536 10.701554 18.050248 17.529892 7.118500 -7.125000 0.000000 0.000000 -9.415700 51.713000 -1.568100 6.138613 -2.200631 -2.320710 75.459988 -3.738864 22.759325 -14.093783 21.917670 -3.875143 1.133438 0.112727 6.933676 -13.992408 5.358326 -1.368700 7.125000 0.000000 0.000000 8.637000 -24.719700 4.280200 
